HIERARCHY
ROOT root
{
	OFFSET 0.000000 0.000000 0.000000
	CHANNELS 6 Xposition Yposition Zposition Zrotation Yrotation Xrotation
	JOINT lhip
	{
		OFFSET 0.058581 -0.082280 -0.017664
		CHANNELS 3 Zrotation Yrotation Xrotation
		JOINT lknee
		{
			OFFSET 0.043451 -0.386469 0.008037
			CHANNELS 3 Zrotation Yrotation Xrotation
			JOINT lankle
			{
				OFFSET -0.014790 -0.426874 -0.037428
				CHANNELS 3 Zrotation Yrotation Xrotation
				JOINT ltoe
				{
					OFFSET 0.041054 -0.060286 0.122042
					CHANNELS 3 Zrotation Yrotation Xrotation
					End Site
					{
						OFFSET 0.000000 0.000000 0.000000
					}
				}
			}
		}
	}
	JOINT rhip
	{
		OFFSET -0.060310 -0.090513 -0.013543
		CHANNELS 3 Zrotation Yrotation Xrotation
		JOINT rknee
		{
			OFFSET -0.043257 -0.383688 -0.004843
			CHANNELS 3 Zrotation Yrotation Xrotation
			JOINT rankle
			{
				OFFSET 0.019056 -0.420046 -0.034562
				CHANNELS 3 Zrotation Yrotation Xrotation
				JOINT rtoe
				{
					OFFSET -0.034840 -0.062106 0.130323
					CHANNELS 3 Zrotation Yrotation Xrotation
					End Site
					{
						OFFSET 0.000000 0.000000 0.000000
					}
				}
			}
		}
	}
	JOINT lowerback
	{
		OFFSET 0.004439 0.124404 -0.038385
		CHANNELS 3 Zrotation Yrotation Xrotation
		JOINT upperback
		{
			OFFSET 0.004488 0.137956 0.026820
			CHANNELS 3 Zrotation Yrotation Xrotation
			JOINT chest
			{
				OFFSET -0.002265 0.056032 0.002855
				CHANNELS 3 Zrotation Yrotation Xrotation
				JOINT lowerneck
				{
					OFFSET -0.013390 0.211636 -0.033468
					CHANNELS 3 Zrotation Yrotation Xrotation
					JOINT upperneck
					{
						OFFSET 0.010113 0.088937 0.050410
						CHANNELS 3 Zrotation Yrotation Xrotation
						End Site
						{
							OFFSET 0.000000 0.000000 0.000000
						}
					}
				}
				JOINT lclavicle
				{
					OFFSET 0.071702 0.114000 -0.018898
					CHANNELS 3 Zrotation Yrotation Xrotation
					JOINT lshoulder
					{
						OFFSET 0.122921 0.045205 -0.019046
						CHANNELS 3 Zrotation Yrotation Xrotation
						JOINT lelbow
						{
							OFFSET 0.255332 -0.015649 -0.022946
							CHANNELS 3 Zrotation Yrotation Xrotation
							JOINT lwrist
							{
								OFFSET 0.265709 0.012698 -0.007375
								CHANNELS 3 Zrotation Yrotation Xrotation
								End Site
								{
									OFFSET 0.000000 0.000000 0.000000
								}
							}
						}
					}
				}
				JOINT rclavicle
				{
					OFFSET -0.082954 0.112472 -0.023707
					CHANNELS 3 Zrotation Yrotation Xrotation
					JOINT rshoulder
					{
						OFFSET -0.113228 0.046853 -0.008472
						CHANNELS 3 Zrotation Yrotation Xrotation
						JOINT relbow
						{
							OFFSET -0.260127 -0.014369 -0.031269
							CHANNELS 3 Zrotation Yrotation Xrotation
							JOINT rwrist
							{
								OFFSET -0.269108 0.006794 -0.006027
								CHANNELS 3 Zrotation Yrotation Xrotation
								End Site
								{
									OFFSET 0.000000 0.000000 0.000000
								}
							}
						}
					}
				}
			}
		}
	}
}
MOTION
Frames: 13
Frame Time: 0.033333
0.448491 0.087030 0.967827 89.213426 1.511348 90.075226 8.226396 1.455123 -3.707918 -3.185855 -6.387290 25.042294 -1.800967 14.568003 -22.821387 0.000000 -0.000000 0.000000 -2.301652 -1.586234 0.040545 3.385480 -2.883110 9.793573 -0.730208 -10.820466 -19.076468 0.000000 -0.000000 0.000000 1.064457 0.531242 1.431084 3.686564 -6.058145 6.442672 0.841826 -1.353531 -1.436583 -6.447725 3.455077 13.757554 2.496654 4.676444 -11.346646 -19.511726 -3.115033 1.829979 -44.696163 -7.472389 9.604085 36.575941 -54.222131 -37.072821 7.016319 -13.392887 -24.515026 15.853301 9.960757 -2.912853 48.048048 12.427948 10.912551 -15.944683 41.384705 -12.118568 -1.800459 10.885861 -25.866274 
0.453762 0.084491 0.966244 88.285677 1.424696 89.299433 8.792818 -0.044673 -7.852097 -5.169274 -4.681842 35.405816 -2.419595 14.581355 -21.398151 0.000000 -0.000000 0.000000 -2.466022 -1.337518 1.031372 3.664179 -2.580049 10.178743 -1.491175 -10.509625 -19.638977 0.000000 -0.000000 0.000000 1.102319 1.069622 2.059172 3.555292 -6.691100 5.947197 0.619524 -1.119996 -1.068533 -7.128242 3.666506 14.478905 2.589056 5.292237 -10.400523 -18.818056 -4.643103 1.657162 -41.717732 -10.357944 9.869989 47.186364 -61.472883 -46.293937 10.112385 -12.200531 -28.735257 15.210596 11.567176 -3.464573 47.400198 14.849401 11.340884 -19.533326 51.029522 -15.206980 -4.873392 10.334194 -28.670424 
0.459950 0.083422 0.964134 87.501805 1.360165 88.548325 9.682111 -1.110131 -12.404061 -7.627938 -3.409462 44.835541 -2.050763 14.192461 -18.566649 0.000000 -0.000000 0.000000 -2.746784 -1.328042 2.047016 3.955310 -2.318581 10.635004 -2.299195 -10.168577 -20.357648 0.000000 -0.000000 0.000000 1.175441 1.730213 3.006944 3.465403 -7.307718 5.181772 0.543334 -0.979321 -0.645259 -7.832705 3.724509 14.972243 2.831436 5.872912 -9.539602 -17.856478 -6.698838 1.600104 -38.836326 -13.570827 9.829359 62.677874 -67.476016 -60.580862 13.060810 -10.877182 -32.859966 14.255339 13.267448 -3.966746 46.663013 17.319886 11.302557 -25.195503 60.907322 -20.228108 -7.521035 9.842588 -31.420811 
0.468145 0.083794 0.961940 86.739185 1.259164 88.048092 10.596452 -1.013758 -16.521303 -9.093204 -2.397661 49.981009 -1.739542 12.398667 -17.306716 0.000000 -0.000000 0.000000 -3.091037 -1.462066 2.982457 3.993595 -2.063194 10.927519 -2.475515 -9.553337 -21.016707 0.000000 -0.000000 0.000000 1.065916 2.345414 3.822865 3.496550 -7.851160 4.404072 0.578374 -0.950835 -0.344714 -8.239085 4.139201 15.531432 3.158553 6.218276 -8.735057 -16.776287 -8.876646 1.279296 -36.082959 -16.942091 9.719621 83.299833 -71.024233 -79.827304 14.906235 -10.734337 -36.144788 13.396098 14.975336 -4.460108 45.917882 19.959176 11.233291 -36.283752 69.696578 -30.396237 -9.016414 10.092063 -33.873684 
0.478417 0.085180 0.960405 85.844352 0.993585 87.981612 11.350224 -0.407419 -19.952851 -9.140217 -1.646432 49.684523 -1.939844 10.411838 -16.454651 0.000000 -0.000000 0.000000 -3.582384 -1.619112 3.626588 3.745357 -1.824109 10.962590 -2.092812 -8.734600 -21.451879 0.000000 -0.000000 0.000000 0.592948 2.984629 4.326269 3.588270 -8.268765 3.666135 0.725047 -1.009541 -0.232889 -8.509940 4.791387 16.141868 3.734015 6.423629 -7.990869 -15.623150 -10.933111 0.826930 -33.679189 -20.533105 9.533782 104.758169 -71.799228 -99.591154 16.189490 -11.251985 -38.398116 12.743145 16.401650 -4.879354 45.572993 22.761325 11.333193 -59.504740 76.265559 -52.318089 -10.506191 10.663491 -35.816327 
0.490615 0.087496 0.959826 84.855999 0.730386 87.985287 11.993726 0.038192 -22.150976 -8.208024 -1.608078 44.968965 -1.890639 9.228331 -15.730644 0.000000 -0.000000 0.000000 -4.176186 -1.831456 4.530315 3.434597 -1.454522 10.553550 -1.346662 -7.806906 -21.808000 0.000000 -0.000000 0.000000 0.017242 3.608262 4.804145 3.722909 -8.661726 3.103050 0.952110 -1.105874 -0.182768 -8.807713 5.510532 16.617137 4.312295 6.577631 -7.493799 -14.161757 -12.878980 0.545138 -31.956651 -24.038600 9.207298 122.982786 -70.306073 -116.478639 17.286748 -11.365612 -40.465632 12.028741 17.583348 -5.151476 45.623692 25.435660 11.440987 -100.438732 78.126494 -91.567319 -12.124947 11.097485 -36.845704 
0.504487 0.091452 0.958961 83.756916 0.665871 88.121796 12.673541 0.288781 -23.511447 -6.471471 -1.926838 37.718885 -1.675217 8.777619 -15.057596 0.000000 -0.000000 0.000000 -4.779371 -2.152926 5.495978 3.164602 -0.964267 9.899559 -0.415143 -6.755519 -22.192490 0.000000 -0.000000 0.000000 -0.294746 4.070598 5.331091 3.855864 -9.097335 2.346654 1.201560 -1.204656 -0.016282 -9.241197 6.362107 16.828898 4.806452 6.847390 -7.095095 -12.737101 -14.803691 0.361003 -30.486811 -26.842835 8.673306 136.321026 -67.561428 -128.979544 18.710201 -11.257048 -42.371053 11.452520 18.805957 -5.212646 45.398655 27.912250 11.075291 -133.164006 74.687632 -122.837890 -13.518522 11.860419 -36.986517 
0.519971 0.097308 0.956946 82.244372 0.747999 88.545955 13.418889 0.954789 -24.625367 -4.440210 -1.880171 29.905070 -2.069578 8.028649 -13.003334 0.000000 -0.000000 0.000000 -5.463464 -2.354413 6.102744 2.890239 -0.515133 9.260584 0.403668 -5.475289 -22.505347 0.000000 -0.000000 0.000000 -0.349990 4.337317 5.650923 3.908605 -9.475186 1.869522 1.382120 -1.311704 -0.101961 -9.481202 7.582856 16.750990 5.016184 7.158716 -6.701595 -11.621401 -16.420448 0.093499 -29.124751 -28.688148 8.155062 144.990251 -64.376873 -136.380663 19.534673 -11.650632 -43.310952 11.063441 19.937615 -5.114454 45.295139 29.956442 11.085432 -148.971721 69.039405 -137.378615 -14.170961 12.700198 -36.799554 
0.537058 0.105135 0.953758 80.287243 0.981976 89.269545 14.217308 2.097768 -25.831933 -3.176716 -1.876042 23.439928 -3.597097 6.337841 -8.034909 0.000000 -0.000000 0.000000 -6.194605 -2.276802 6.221887 2.598387 -0.096334 8.788899 0.865803 -4.109977 -22.721954 0.000000 -0.000000 0.000000 -0.161654 4.399370 5.816783 3.853205 -9.802529 1.548420 1.519813 -1.483240 -0.343999 -9.745509 8.954648 16.518113 5.130381 7.856823 -6.594491 -11.363803 -17.729673 0.072087 -27.362205 -29.350605 7.375251 150.973457 -61.263277 -140.827629 20.172589 -12.434997 -43.198885 11.087730 20.788862 -4.668151 44.856589 31.595347 10.908728 -157.645298 63.726118 -145.049661 -14.649374 13.914469 -36.057108 
0.555378 0.115331 0.949554 77.983904 1.335716 90.126402 14.959660 3.169824 -27.091577 -2.868839 -2.294313 19.647731 -4.907167 4.589224 -4.856398 0.000000 -0.000000 0.000000 -7.087651 -2.052704 6.040134 2.357535 0.544260 8.413886 1.312293 -2.806991 -22.968260 0.000000 -0.000000 0.000000 0.129180 4.276941 6.242528 3.823370 -10.149454 1.035459 1.653708 -1.718636 -0.411829 -10.086923 10.282273 15.905852 5.193360 9.108193 -7.067506 -11.879358 -18.609619 0.313146 -25.412971 -29.072217 6.485262 155.458648 -58.451624 -144.125914 21.196664 -13.277633 -42.850447 11.478640 21.167501 -4.252026 44.021189 32.570848 10.271434 -163.655066 59.313852 -150.736225 -14.847584 15.141140 -35.992631 
0.574960 0.127870 0.944135 75.535529 1.971199 91.114091 15.632391 3.971429 -28.827937 -2.784122 -1.601894 19.387069 -5.334080 3.879704 -2.159418 0.000000 -0.000000 0.000000 -8.008596 -1.776883 5.712736 2.250905 1.382353 7.879086 1.590149 -1.660837 -23.130037 0.000000 -0.000000 0.000000 0.569620 4.054509 6.693989 3.845999 -10.698144 0.732061 1.885118 -2.111127 -0.503124 -10.334527 11.592440 14.680311 5.101425 10.745855 -7.774936 -13.171098 -19.487580 0.812188 -23.249259 -27.332283 5.521944 159.035267 -56.074505 -146.733975 22.638902 -14.288628 -41.995700 12.090107 21.519951 -3.899144 42.557135 32.519269 9.344347 -167.622318 55.727167 -155.228050 -14.890265 16.344564 -36.339312 
0.595523 0.142680 0.937942 73.046928 2.861457 92.055925 16.037603 4.503360 -30.667339 -2.653587 0.476988 22.434195 -3.216628 4.237694 -1.684525 0.000000 -0.000000 0.000000 -8.969431 -1.465838 5.555757 2.220866 2.362113 6.923209 2.017586 -0.662500 -23.101307 0.000000 -0.000000 0.000000 1.026244 3.830123 7.376935 4.023971 -11.392952 0.666536 2.227176 -2.723920 -0.631271 -10.269789 12.847735 12.836296 4.772929 12.397190 -8.736187 -14.717217 -20.362695 1.516294 -21.569250 -24.411797 4.527232 161.833148 -54.856832 -148.203736 23.926497 -16.369787 -40.259695 12.668619 21.860180 -3.820009 40.875174 31.649699 8.325194 -170.081252 53.524084 -158.084155 -14.773888 18.069234 -36.329035 
0.615505 0.159264 0.931958 70.640490 3.843208 93.120735 16.059684 5.352360 -33.013792 -2.603274 2.281168 27.840310 -0.734941 5.036806 -6.287608 0.000000 -0.000000 0.000000 -9.955874 -1.308718 4.995384 2.138287 3.208688 6.028692 2.979132 0.010982 -22.843716 0.000000 -0.000000 0.000000 1.226318 3.666832 8.300920 4.427506 -11.975916 0.555290 2.642891 -3.650344 -0.443920 -9.941971 14.082609 10.488137 4.198641 14.084749 -10.138328 -16.416957 -21.133703 2.461362 -20.413607 -20.854326 3.765004 163.718219 -55.365240 -148.329838 24.859052 -19.744168 -37.755605 13.221856 22.200078 -4.119676 39.293359 30.288330 7.385660 -171.856701 52.602276 -160.158114 -14.664661 19.689183 -37.143651 
